<?xml version="1.0" encoding="UTF-8" standalone="no"?>
<!-- Created with Inkscape (http://www.inkscape.org/) -->

<svg
   width="427.54596mm"
   height="223.10365mm"
   viewBox="0 0 427.54599 223.10365"
   version="1.1"
   id="svg1"
   xml:space="preserve"
   inkscape:version="1.3.2 (091e20e, 2023-11-25, custom)"
   sodipodi:docname="M6plus.svg"
   inkscape:export-filename="M6chaines.png"
   inkscape:export-xdpi="11.330345"
   inkscape:export-ydpi="11.330345"
   xmlns:inkscape="http://www.inkscape.org/namespaces/inkscape"
   xmlns:sodipodi="http://sodipodi.sourceforge.net/DTD/sodipodi-0.dtd"
   xmlns:xlink="http://www.w3.org/1999/xlink"
   xmlns="http://www.w3.org/2000/svg"
   xmlns:svg="http://www.w3.org/2000/svg"><g
     inkscape:label="Calque 1"
     inkscape:groupmode="layer"
     id="layer1"
     transform="translate(-1566.9164,-747.47485)"><path
       id="path1-5"
       style="opacity:1;fill:url(#linearGradient63);fill-opacity:1;fill-rule:evenodd;stroke-width:0.167042"
       d="m 1901.1306,747.47947 c -5.4627,0.008 -10.822,0.0302 -15.4011,0.0739 -15.3212,0.14616 -16.8088,8.20673 -16.8088,8.20673 0,0 20.6426,1.47607 38.3579,2.08411 -0.3178,9.31163 0.022,16.3313 0.022,16.3313 0,0 4.5883,2.53091 18.2087,2.50218 v 0.002 h 5e-4 c 0.04,1.7e-4 0.075,-0.001 0.1153,-0.001 0.04,-1.3e-4 0.075,0.001 0.1152,0.001 h 5e-4 v -0.002 c 13.6204,0.0287 18.2087,-2.50218 18.2087,-2.50218 0,0 0.3395,-7.01967 0.022,-16.3313 17.7153,-0.60804 38.3579,-2.08411 38.3579,-2.08411 0,0 -1.4876,-8.06057 -16.8088,-8.20673 -4.5791,-0.0437 -9.9384,-0.0659 -15.4011,-0.0739 -10.6955,-0.016 -18.0778,0.0126 -24.4941,0.0398 -6.4163,-0.0272 -13.7992,-0.0558 -24.4947,-0.0398 z" /><path
       id="path1-5-6"
       style="fill:url(#linearGradient68);fill-opacity:1;fill-rule:evenodd;stroke-width:0.167042"
       d="m 1901.1305,970.61831 c -5.4627,-0.008 -10.822,-0.0302 -15.4011,-0.0739 -15.3212,-0.14616 -16.8088,-8.20673 -16.8088,-8.20673 0,0 20.6426,-1.47607 38.3579,-2.08411 -0.3178,-9.31163 0.022,-16.3313 0.022,-16.3313 0,0 4.5883,-2.53091 18.2087,-2.50218 v -0.002 h 5e-4 c 0.04,-1.7e-4 0.075,10e-4 0.1153,10e-4 0.04,1.3e-4 0.075,-10e-4 0.1152,-10e-4 h 5e-4 v 0.002 c 13.6204,-0.0287 18.2087,2.50218 18.2087,2.50218 0,0 0.3395,7.01967 0.022,16.3313 17.7153,0.60804 38.3579,2.08411 38.3579,2.08411 0,0 -1.4876,8.06057 -16.8088,8.20673 -4.5791,0.0437 -9.9384,0.0659 -15.4011,0.0739 -10.6955,0.016 -18.0778,-0.0126 -24.4941,-0.0398 -6.4163,0.0272 -13.7992,0.0558 -24.4947,0.0398 z" /><path
       id="rect61"
       style="fill:#f7f700;fill-opacity:1;fill-rule:evenodd;stroke-width:0.167042"
       d="m 1925.6248,790.21279 c -13.807,-0.0593 -18.4402,2.50371 -18.4402,2.50371 0,0 -4.0166,22.86961 -4.5279,32.55047 -0.1661,3.14404 -0.285,6.76704 -0.3716,10.44174 -3.6748,0.0866 -7.2981,0.20594 -10.4422,0.37208 -9.6808,0.5113 -32.55,4.52839 -32.55,4.52839 0,0 -2.5634,4.63273 -2.5042,18.43972 -0.059,13.80698 2.5042,18.44021 2.5042,18.44021 0,0 22.8692,4.01658 32.55,4.52789 3.1441,0.16604 6.7674,0.285 10.4422,0.37155 0.087,3.67488 0.2055,7.29808 0.3716,10.44226 0.5113,9.68087 4.5279,32.55047 4.5279,32.55047 0,0 4.6332,2.56301 18.4402,2.50371 13.807,0.0593 18.4402,-2.50371 18.4402,-2.50371 0,0 4.0171,-22.8696 4.5284,-32.55047 0.1662,-3.14403 0.285,-6.76705 0.3716,-10.44174 3.6748,-0.0866 7.2981,-0.20594 10.4422,-0.37207 9.6808,-0.51131 32.55,-4.52789 32.55,-4.52789 0,0 2.5635,-4.63323 2.5042,-18.44021 0.059,-13.80699 -2.5042,-18.43972 -2.5042,-18.43972 0,0 -22.8692,-4.01709 -32.55,-4.52839 -3.1441,-0.16614 -6.7674,-0.28551 -10.4422,-0.37208 -0.087,-3.67468 -0.2054,-7.2977 -0.3716,-10.44174 -0.5113,-9.68086 -4.5284,-32.55047 -4.5284,-32.55047 0,0 -4.6332,-2.56297 -18.4402,-2.50371 z"
       sodipodi:nodetypes="ccscccccscscccccccccscccc" /><g
       id="g2"
       transform="matrix(0.37506757,0,0,0.38847191,1566.9161,754.91879)"
       style="opacity:1;fill:#000000">
	<path
   id="path1"
   style="fill:#000000"
   d="M 331.51348,-14.886771 C 292.96559,33.717834 238.73434,128.90187 232.15829,140.50758 L 95.415392,4.43947e-5 6.8355739e-4,555.14882 H 190.83286 l 27.27197,-158.6109 163.56158,158.6109 163.5602,-158.6109 27.27197,158.6109 H 763.32937 L 667.91467,4.43947e-5 519.11749,152.89353 C 482.12589,110.0973 410.32306,96.854135 410.32306,96.854135 l 71.6613,-111.740906 z M 247.2258,155.99035 c 2.65114,0.34524 191.04927,24.80649 254.61007,14.66067 L 381.66503,294.13004 Z"
   sodipodi:nodetypes="ccccccccccccccccccc" />
	<path
   fill-rule="evenodd"
   clip-rule="evenodd"
   fill="#d93032"
   d="m 339.00183,0 c -50.09804,68.067574 -109.89175,165.86106 -126.46377,234.94424 -3.86815,14.07139 -5.85023,28.59191 -5.85023,43.08792 0,92.19697 78.15579,167.18286 174.19778,167.18286 96.04197,0 174.19776,-74.98589 174.19776,-167.20634 0,-89.31656 -75.21881,-163.78291 -168.08533,-166.92361 C 413.95842,66.273179 440.96526,24.695892 459.11366,0 Z m 41.59678,204.9121 c 41.76506,0 75.76802,32.79415 75.76802,73.12006 0,40.30243 -33.98024,73.09658 -75.76802,73.09658 -41.78777,0 -75.79175,-32.79415 -75.79175,-73.09658 0,-40.32591 34.00398,-73.09658 75.79175,-73.09658 z"
   id="path2"
   style="fill:#000000;stroke-width:1.0265" />
</g><path
       id="path61-2"
       style="opacity:1;fill:#000000;stroke:#000000;stroke-width:0"
       d="m 1710.0833,834.03232 a 28.476713,28.68342 0 0 0 -28.4768,28.68353 28.476713,28.68342 0 0 0 28.4768,28.68352 28.476713,28.68342 0 0 0 28.4763,-28.68352 28.476713,28.68342 0 0 0 -28.4763,-28.68353 z m -0.017,7.11172 a 21.448719,21.60441 0 0 1 18.9435,11.48715 21.448719,21.60441 0 0 0 -1.3281,-2.19832 l -17.6154,18.74718 -17.5907,-18.72134 a 21.448719,21.60441 0 0 0 -2.051,3.7729 21.448719,21.60441 0 0 1 19.6417,-13.08757 z m 18.9926,11.58378 a 21.448719,21.60441 0 0 1 1.0139,2.25516 21.448719,21.60441 0 0 0 -1.0139,-2.25516 z m 1.0718,2.40813 a 21.448719,21.60441 0 0 1 0.726,2.33267 21.448719,21.60441 0 0 0 -0.726,-2.33267 z m -40.1976,0.2899 a 21.448719,21.60441 0 0 0 -0.4651,1.48156 21.448719,21.60441 0 0 1 0.4651,-1.48156 z m 40.9634,2.19832 a 21.448719,21.60441 0 0 1 0.4444,2.42569 21.448719,21.60441 0 0 0 -0.4444,-2.42569 z m -41.8119,0.89193 a 21.448719,21.60441 0 0 0 -0.2356,1.26814 21.448719,21.60441 0 0 1 0.2356,-1.26814 z m 42.2744,1.66398 a 21.448719,21.60441 0 0 1 0.1561,2.56884 21.448719,21.60441 0 0 0 -0.1561,-2.56884 z m -42.4971,5.69785 a 21.448719,21.60441 0 0 0 0.1938,0.9803 21.448719,21.60441 0 0 1 -0.1938,-0.9803 z m 42.4088,0 a 21.448719,21.60441 0 0 1 -0.1943,0.98288 21.448719,21.60441 0 0 0 0.1943,-0.98288 z m -0.6925,3.07423 a 21.448719,21.60441 0 0 1 -0.3705,1.09967 21.448719,21.60441 0 0 0 0.3705,-1.09967 z m -41.0228,0.004 a 21.448719,21.60441 0 0 0 0.3695,1.09503 21.448719,21.60441 0 0 1 -0.3695,-1.09503 z m 1.1415,2.97347 a 21.448719,21.60441 0 0 0 0.5101,1.04179 21.448719,21.60441 0 0 1 -0.5101,-1.04179 z m 38.7372,0.003 a 21.448719,21.60441 0 0 1 -0.508,1.03818 21.448719,21.60441 0 0 0 0.508,-1.03818 z m -37.1109,2.87424 a 21.448719,21.60441 0 0 0 0.5524,0.83303 21.448719,21.60441 0 0 1 -0.5524,-0.83303 z m 35.4862,0 a 21.448719,21.60441 0 0 1 -0.5524,0.83303 21.448719,21.60441 0 0 0 0.5524,-0.83303 z m -30.5423,5.25653 a 21.448719,21.60441 0 0 0 0.833,0.56069 21.448719,21.60441 0 0 1 -0.833,-0.56069 z m 25.5984,0 a 21.448719,21.60441 0 0 1 -0.833,0.56069 21.448719,21.60441 0 0 0 0.833,-0.56069 z m -22.9454,1.68362 a 21.448719,21.60441 0 0 0 1.0268,0.51004 21.448719,21.60441 0 0 1 -1.0268,-0.51004 z m 20.2923,0 a 21.448719,21.60441 0 0 1 -1.0268,0.51004 21.448719,21.60441 0 0 0 1.0268,-0.51004 z m -17.3968,1.28984 a 21.448719,21.60441 0 0 0 1.0934,0.37362 21.448719,21.60441 0 0 1 -1.0934,-0.37362 z m 14.5004,5.2e-4 a 21.448719,21.60441 0 0 1 -1.0914,0.3731 21.448719,21.60441 0 0 0 1.0914,-0.3731 z m -11.3358,0.87385 a 21.448719,21.60441 0 0 0 0.9803,0.19637 21.448719,21.60441 0 0 1 -0.9803,-0.19637 z m 8.1711,5.1e-4 a 21.448719,21.60441 0 0 1 -0.9788,0.19586 21.448719,21.60441 0 0 0 0.9788,-0.19586 z" /><path
       fill-rule="evenodd"
       clip-rule="evenodd"
       fill="#d93032"
       d="m 1694.114,754.18176 c -18.7902,26.44234 -41.2168,64.43236 -47.4325,91.26924 -1.4508,5.46634 -2.1942,11.10715 -2.1942,16.73844 0,35.81594 29.3137,64.94585 65.3359,64.94585 36.0223,0 65.336,-29.12991 65.336,-64.95497 0,-34.69697 -28.2122,-63.62506 -63.0434,-64.84513 10.112,-17.40816 20.2414,-33.55977 27.0482,-43.15343 z m 15.6016,79.60259 c 15.6647,0 28.4181,12.73961 28.4181,28.40509 0,15.65637 -12.7449,28.39597 -28.4181,28.39597 -15.6732,0 -28.427,-12.7396 -28.427,-28.39597 0,-15.66548 12.7538,-28.39596 28.427,-28.39596 z"
       id="path2-8"
       style="opacity:1;fill:#ffffff;stroke-width:0.391826" /></g></svg>
