<?xml version="1.0" encoding="utf-8"?>
<!-- Generator: Adobe Illustrator 19.0.0, SVG Export Plug-In . SVG Version: 6.00 Build 0)  -->
<svg version="1.1" id="layer" xmlns="http://www.w3.org/2000/svg" xmlns:xlink="http://www.w3.org/1999/xlink" x="0px" y="0px"
	 viewBox="-153 -46 652 652" style="enable-background:new -153 -46 652 652;" xml:space="preserve">
<path d="M468.5,183.4l-28.8,14.8v154.9l28.8,13.5V183.4z M-131.5,183.4v183.2l28.8-13.5V198.2L-131.5,183.4z M357.8,239.8v84.4h29.1
	v-98.3L357.8,239.8z M278.6,231.5v92.6H307v-34.6h32.4v-20.7H307v-16.6h37.2v-20.7L278.6,231.5z M182.3,231.5v21.8h27.3v70.8h28.2
	v-70.8h27.3v-21.8H182.3z M123.2,231.5l-16.2,35.9l-16.2-35.9h-30L92.8,297v27.2H121V297l32.1-65.4L123.2,231.5z M28.8,231.5
	L1,265.7l-27.2-34.2h-23.8v92.6h25.2v-52.6l25.6,29.5l25.4-28.7v51.8h25.2v-92.6L28.8,231.5z"/>
</svg>
