<svg xmlns="http://www.w3.org/2000/svg" width="128" height="128" viewBox="0 0 128 128">
  <g>
    <path d="M17.887,12.406a5.48,5.48,0,1,0,5.479,5.481A5.488,5.488,0,0,0,17.887,12.406Zm0,7.46a1.98,1.98,0,1,1,1.979-1.979A1.982,1.982,0,0,1,17.887,19.866Z" fill="#241c49" stroke="#0a2119" stroke-miterlimit="10"/>
    <path d="M110.113,23.366a5.48,5.48,0,1,0-5.479-5.479A5.486,5.486,0,0,0,110.113,23.366Zm0-7.46a1.98,1.98,0,1,1-1.979,1.981A1.984,1.984,0,0,1,110.113,15.906Z" fill="#241c49" stroke="#0a2119" stroke-miterlimit="10"/>
    <path d="M17.887,104.634a5.48,5.48,0,1,0,5.479,5.479A5.486,5.486,0,0,0,17.887,104.634Zm0,7.46a1.98,1.98,0,1,1,1.979-1.981A1.984,1.984,0,0,1,17.887,112.094Z" fill="#241c49" stroke="#0a2119" stroke-miterlimit="10"/>
    <path d="M110.113,104.634a5.48,5.48,0,1,0,5.481,5.479A5.485,5.485,0,0,0,110.113,104.634Zm0,7.46a1.98,1.98,0,1,1,1.981-1.981A1.982,1.982,0,0,1,110.113,112.094Z" fill="#241c49" stroke="#0a2119" stroke-miterlimit="10"/>
    <path d="M64,23.32A40.68,40.68,0,1,0,104.68,64,40.726,40.726,0,0,0,64,23.32Zm0,77.86A37.18,37.18,0,1,1,101.18,64,37.222,37.222,0,0,1,64,101.18Z" fill="#241c49" stroke="#0a2119" stroke-miterlimit="10"/>
    <path d="M64,43.872A20.128,20.128,0,1,0,84.128,64,20.15,20.15,0,0,0,64,43.872Zm0,36.756A16.628,16.628,0,1,1,80.628,64,16.646,16.646,0,0,1,64,80.628Z" fill="#241c49" stroke="#0a2119" stroke-miterlimit="10"/>
    <path d="M112.946,84.081a52.781,52.781,0,0,0,0-40.161l8.975-18.153A14.7,14.7,0,0,0,102.233,6.079L84.081,15.054a52.784,52.784,0,0,0-40.162,0L25.767,6.079A14.7,14.7,0,0,0,6.079,25.767l8.975,18.152a52.784,52.784,0,0,0,0,40.162L6.079,102.233a14.7,14.7,0,0,0,19.688,19.688l18.152-8.975a52.784,52.784,0,0,0,40.162,0l18.152,8.975a14.7,14.7,0,0,0,19.688-19.688ZM103.784,9.216a11.2,11.2,0,0,1,15,15l-7.727,15.63a53.264,53.264,0,0,0-22.9-22.9Zm-94.568,15a11.2,11.2,0,0,1,15-15l15.63,7.727a53.264,53.264,0,0,0-22.9,22.9Zm15,94.568a11.2,11.2,0,0,1-15-15l7.727-15.63a53.264,53.264,0,0,0,22.9,22.9ZM14.585,64A49.415,49.415,0,1,1,64,113.415,49.472,49.472,0,0,1,14.585,64Zm102.079,52.664a11.2,11.2,0,0,1-12.88,2.12l-15.63-7.727a53.264,53.264,0,0,0,22.9-22.9l7.727,15.63A11.193,11.193,0,0,1,116.664,116.664Z" fill="#241c49" stroke="#0a2119" stroke-miterlimit="10"/>
  </g>
</svg>
